<svg xmlns="http://www.w3.org/2000/svg" viewBox="0 0 432.87 41.5" style=""><defs><style>.cls-1{fill:none;stroke:#070808;stroke-miterlimit:10;}</style></defs><title>Sherreti Outline Stroke</title><g id="Layer_2" data-name="Layer 2"><g id="Layer_1-2" data-name="Layer 1"><path class="cls-1 SDbSbDMI_0" d="M311.4,32.8h48.29v8H303.38V.59h56.36V8.5c-.84.05-1.68.16-2.53.16H311.37v8.13h48.35v8H311.4Z"></path><path class="cls-1 SDbSbDMI_1" d="M129.92,32.8h48.29v8H121.83V.59h56.38v8H129.89V16.8h48.34v8H129.92Z"></path><path class="cls-1 SDbSbDMI_2" d="M8.71,8.64v8.18H46.76a17,17,0,0,1,4.27.51,7.31,7.31,0,0,1,5.64,6,29.16,29.16,0,0,1,0,10.78,7.67,7.67,0,0,1-6.9,6.56,21,21,0,0,1-3,.24q-22.7,0-45.35,0H.69V32.92H49V24.76h-.84c-12.36,0-24.72,0-37.08,0a18.42,18.42,0,0,1-4-.45,7.32,7.32,0,0,1-5.95-6A29.34,29.34,0,0,1,1,7.25c.68-3.71,3.42-6,7.3-6.44A23.54,23.54,0,0,1,10.93.66H57v8Z"></path><path class="cls-1 SDbSbDMI_3" d="M190.32,28.86V40.79h-8V.69h46.23a16,16,0,0,1,4.34.57A7.45,7.45,0,0,1,238.49,8a46.58,46.58,0,0,1,0,11.07c-.31,2.79-1.33,4.09-3.7,5.68v.11a6.92,6.92,0,0,1,3.67,5.77c.25,3.37.21,6.75.29,10.12h-8.06V28.86ZM230.64,8.68H190.32V20.82h40.3Z"></path><path class="cls-1 SDbSbDMI_4" d="M242.77,40.79V.69H289a13.33,13.33,0,0,1,4.93.77,7.7,7.7,0,0,1,5,6.56,30.23,30.23,0,0,1,.23,4.56c0,2.09,0,4.22-.19,6.26a7.11,7.11,0,0,1-3.76,6c0,.06,0,.11.05.13A7.41,7.41,0,0,1,299,31.45c.17,3,.11,6.1.14,9.17a.83.83,0,0,1-.06.21h-7.94V28.89H250.77v11.9ZM291.12,8.68h-40.3V20.82h40.3Z"></path><path class="cls-1 SDbSbDMI_5" d="M69.22.5V16.75h40.35V.5h8V40.78h-7.95V24.87H69.23V40.79h-8V.5Z"></path><path class="cls-1 SDbSbDMI_6" d="M388.06,8.68H363.91v-8h56.37v8H396.09V40.91h-8Z"></path><path class="cls-1 SDbSbDMI_7" d="M424.41.58h8V40.92h-8Z"></path></g></g><style data-made-with="vivus-instant">.SDbSbDMI_0{stroke-dasharray:387 389;stroke-dashoffset:388;animation:SDbSbDMI_draw_0 7200ms linear 0ms infinite,SDbSbDMI_fade 7200ms linear 0ms infinite;}.SDbSbDMI_1{stroke-dasharray:387 389;stroke-dashoffset:388;animation:SDbSbDMI_draw_1 7200ms linear 0ms infinite,SDbSbDMI_fade 7200ms linear 0ms infinite;}.SDbSbDMI_2{stroke-dasharray:372 374;stroke-dashoffset:373;animation:SDbSbDMI_draw_2 7200ms linear 0ms infinite,SDbSbDMI_fade 7200ms linear 0ms infinite;}.SDbSbDMI_3{stroke-dasharray:321 323;stroke-dashoffset:322;animation:SDbSbDMI_draw_3 7200ms linear 0ms infinite,SDbSbDMI_fade 7200ms linear 0ms infinite;}.SDbSbDMI_4{stroke-dasharray:321 323;stroke-dashoffset:322;animation:SDbSbDMI_draw_4 7200ms linear 0ms infinite,SDbSbDMI_fade 7200ms linear 0ms infinite;}.SDbSbDMI_5{stroke-dasharray:258 260;stroke-dashoffset:259;animation:SDbSbDMI_draw_5 7200ms linear 0ms infinite,SDbSbDMI_fade 7200ms linear 0ms infinite;}.SDbSbDMI_6{stroke-dasharray:194 196;stroke-dashoffset:195;animation:SDbSbDMI_draw_6 7200ms linear 0ms infinite,SDbSbDMI_fade 7200ms linear 0ms infinite;}.SDbSbDMI_7{stroke-dasharray:97 99;stroke-dashoffset:98;animation:SDbSbDMI_draw_7 7200ms linear 0ms infinite,SDbSbDMI_fade 7200ms linear 0ms infinite;}@keyframes SDbSbDMI_draw{100%{stroke-dashoffset:0;}}@keyframes SDbSbDMI_fade{0%{stroke-opacity:1;}94.44444444444444%{stroke-opacity:1;}100%{stroke-opacity:0;}}@keyframes SDbSbDMI_draw_0{11.11111111111111%{stroke-dashoffset: 388}38.88888888888889%{ stroke-dashoffset: 0;}100%{ stroke-dashoffset: 0;}}@keyframes SDbSbDMI_draw_1{13.095238095238097%{stroke-dashoffset: 388}40.87301587301588%{ stroke-dashoffset: 0;}100%{ stroke-dashoffset: 0;}}@keyframes SDbSbDMI_draw_2{15.07936507936508%{stroke-dashoffset: 373}42.85714285714286%{ stroke-dashoffset: 0;}100%{ stroke-dashoffset: 0;}}@keyframes SDbSbDMI_draw_3{17.06349206349206%{stroke-dashoffset: 322}44.841269841269835%{ stroke-dashoffset: 0;}100%{ stroke-dashoffset: 0;}}@keyframes SDbSbDMI_draw_4{19.04761904761905%{stroke-dashoffset: 322}46.82539682539682%{ stroke-dashoffset: 0;}100%{ stroke-dashoffset: 0;}}@keyframes SDbSbDMI_draw_5{21.03174603174603%{stroke-dashoffset: 259}48.80952380952381%{ stroke-dashoffset: 0;}100%{ stroke-dashoffset: 0;}}@keyframes SDbSbDMI_draw_6{23.015873015873016%{stroke-dashoffset: 195}50.79365079365079%{ stroke-dashoffset: 0;}100%{ stroke-dashoffset: 0;}}@keyframes SDbSbDMI_draw_7{25%{stroke-dashoffset: 98}52.77777777777778%{ stroke-dashoffset: 0;}100%{ stroke-dashoffset: 0;}}</style></svg>